<svg height="16" viewBox="0 0 16 16" width="16" xmlns="http://www.w3.org/2000/svg"><path d="m12.294 6.137c-.922 0-1.751.384-2.341 1.011-.25.265-.684.58-1.153.856.22-.842.917-1.902 1.4-2.367.619-.596 1-1.435 1-2.367 0-1.795-1.429-3.252-3.2-3.271-1.771.019-3.2 1.475-3.2 3.271 0 .932.38 1.771 1 2.367.484.465 1.18 1.525 1.4 2.367-.469-.277-.903-.591-1.153-.856-.59-.627-1.419-1.011-2.341-1.011-1.787 0-3.236 1.463-3.236 3.271s1.448 3.271 3.236 3.271c.923 0 1.751-.396 2.341-1.023.263-.279.726-.627 1.223-.916-.047 2.308-1.149 4.003-2.271 4.67v.59h6v-.59c-1.122-.668-2.224-2.363-2.271-4.67.498.289.961.637 1.223.916.59.626 1.419 1.023 2.341 1.023 1.787 0 3.236-1.464 3.236-3.271s-1.448-3.271-3.236-3.271z"/></svg>